<svg data-name="Lager 1" xmlns="http://www.w3.org/2000/svg" viewBox="0 0 135 40"><defs><linearGradient id="a" x1="21.73" y1="33.12" x2="4.95" y2="16.33" gradientTransform="matrix(1 0 0 -1 0 42)" gradientUnits="userSpaceOnUse"><stop offset="0" stop-color="#00a0ff"/><stop offset=".01" stop-color="#00a1ff"/><stop offset=".26" stop-color="#00beff"/><stop offset=".51" stop-color="#00d2ff"/><stop offset=".76" stop-color="#00dfff"/><stop offset="1" stop-color="#00e3ff"/></linearGradient><linearGradient id="b" x1="33.76" y1="21.82" x2="9.57" y2="21.82" gradientTransform="matrix(1 0 0 -1 0 42)" gradientUnits="userSpaceOnUse"><stop offset="0" stop-color="#ffe000"/><stop offset=".41" stop-color="#ffbd00"/><stop offset=".78" stop-color="orange"/><stop offset="1" stop-color="#ff9c00"/></linearGradient><linearGradient id="c" x1="24.76" y1="19.53" x2="2" y2="-3.23" gradientTransform="matrix(1 0 0 -1 0 42)" gradientUnits="userSpaceOnUse"><stop offset="0" stop-color="#ff3a44"/><stop offset="1" stop-color="#c31162"/></linearGradient><linearGradient id="d" x1="7.23" y1="41.65" x2="17.39" y2="31.49" gradientTransform="matrix(1 0 0 -1 0 42)" gradientUnits="userSpaceOnUse"><stop offset="0" stop-color="#32a071"/><stop offset=".07" stop-color="#2da771"/><stop offset=".48" stop-color="#15cf74"/><stop offset=".8" stop-color="#06e775"/><stop offset="1" stop-color="#00f076"/></linearGradient></defs><rect x="-.07" y=".17" width="135" height="40" rx="5"/><path d="M129.93 1a4.21 4.21 0 014.2 4.2v30a4.21 4.21 0 01-4.2 4.2h-125a4.2 4.2 0 01-4.2-4.2v-30A4.21 4.21 0 014.93 1h125m0-.8h-125a5 5 0 00-5 5v30a5 5 0 005 5h125a5 5 0 005-5v-30a5 5 0 00-5-5z" fill="#a6a6a6"/><path d="M47.35 10.42a2.71 2.71 0 01-.75 2 2.91 2.91 0 01-2.2.89 3.09 3.09 0 01-3.12-3.14A3.09 3.09 0 0144.4 7a3 3 0 011.23.25 2.54 2.54 0 01.94.67l-.57.57a2 2 0 00-1.64-.71 2.31 2.31 0 00-2.33 2.39 2.29 2.29 0 00.69 1.73 2.27 2.27 0 001.64.67 2.24 2.24 0 001.67-.67 1.93 1.93 0 00.51-1.22H44.4V10h2.9a2.49 2.49 0 01.05.42zM52 7.91h-2.78v1.9h2.47v.72h-2.47v1.91H52v.73h-3.55v-6H52zm3.21 5.26h-.77V7.91h-1.68v-.74h4.12v.74h-1.67zm4.66 0v-6h.77v6zm4.19 0h-.77V7.91h-1.68v-.74h4.12v.74h-1.67zm9.48-.77a3.11 3.11 0 01-4.4 0 3.09 3.09 0 01-.89-2.23A3.08 3.08 0 0169.14 8a3.1 3.1 0 014.39 0 3 3 0 01.89 2.22 3.08 3.08 0 01-.88 2.18zm-3.83-.5a2.32 2.32 0 003.26 0 2.38 2.38 0 00.66-1.73A2.37 2.37 0 0073 8.45a2.32 2.32 0 00-3.26 0 2.34 2.34 0 00-.74 1.72 2.34 2.34 0 00.71 1.73zm5.79 1.27v-6h.94l2.92 4.67V7.17h.77v6h-.81l-3-4.89v4.89z" fill="#fff" stroke="#fff" stroke-miterlimit="10" stroke-width=".2"/><path d="M68.06 21.93a4.25 4.25 0 104.27 4.25 4.18 4.18 0 00-4.27-4.25zm0 6.83a2.59 2.59 0 112.4-2.58 2.47 2.47 0 01-2.4 2.58zm-9.31-6.83A4.25 4.25 0 1063 26.18a4.19 4.19 0 00-4.25-4.25zm0 6.83a2.59 2.59 0 112.4-2.58 2.46 2.46 0 01-2.4 2.58zm-11.08-5.53V25H52a3.83 3.83 0 01-1 2.28 4.46 4.46 0 01-3.34 1.32 4.8 4.8 0 010-9.6 4.63 4.63 0 013.26 1.28L52.2 19a6.3 6.3 0 00-4.53-1.82 6.61 6.61 0 100 13.21 6 6 0 004.61-1.85 6 6 0 001.56-4.22 6.31 6.31 0 00-.09-1.13zM93 24.63a3.94 3.94 0 00-3.64-2.7 4 4 0 00-4 4.25 4.16 4.16 0 004.22 4.25 4.21 4.21 0 003.54-1.88l-1.45-1a2.42 2.42 0 01-2.09 1.18 2.16 2.16 0 01-2.06-1.29l5.68-2.35zm-5.8 1.42a2.33 2.33 0 012.22-2.48 1.64 1.64 0 011.58.9zm-4.62 4.12h1.87v-12.5h-1.89zm-3.08-7.29h-.07a2.94 2.94 0 00-2.24-.95 4.25 4.25 0 000 8.5 2.91 2.91 0 002.24-1h.07v.61a2.18 2.18 0 01-2.28 2.49 2.35 2.35 0 01-2.14-1.51l-1.63.68a4.07 4.07 0 003.77 2.51c2.2 0 4-1.29 4-4.43v-7.6H79.5zm-2.15 5.88A2.44 2.44 0 0175 26.19a2.45 2.45 0 012.36-2.59 2.39 2.39 0 012.27 2.59 2.37 2.37 0 01-2.28 2.57zm24.38-11.09h-4.47v12.5h1.87v-4.73h2.6a3.89 3.89 0 100-7.77zm0 6h-2.6v-4.26h2.65a2.15 2.15 0 110 4.29zm11.53-1.8a3.51 3.51 0 00-3.26 1.95l1.66.69a1.78 1.78 0 011.71-.92 1.8 1.8 0 012 1.61v.13a4.18 4.18 0 00-2-.48c-1.78 0-3.6 1-3.6 2.81a2.89 2.89 0 003.1 2.75 2.62 2.62 0 002.38-1.22h.07v1h1.8v-4.83c-.01-2.22-1.67-3.46-3.81-3.46zm-.22 6.85c-.61 0-1.46-.3-1.46-1.06 0-1 1.06-1.33 2-1.33a3.26 3.26 0 011.71.42 2.26 2.26 0 01-2.2 2zm10.58-6.57l-2.14 5.42h-.06l-2.22-5.42h-2l3.33 7.57-1.86 4.28h2l5.13-11.78zm-16.81 8h1.87V17.67h-1.87z" fill="#fff"/><path d="M10.36 7.71a2 2 0 00-.46 1.41v22.11a2 2 0 00.46 1.41l.08.07 12.39-12.39V20L10.44 7.64z" fill="url(#a)"/><path d="M27 24.45l-4.13-4.13V20L27 15.9h.09l4.89 2.78c1.4.8 1.4 2.09 0 2.89l-4.93 2.83z" fill="url(#b)"/><path d="M27.05 24.4l-4.22-4.23-12.47 12.47a1.62 1.62 0 002.08.06l14.61-8.3" fill="url(#c)"/><path d="M27.05 16L12.44 7.65a1.62 1.62 0 00-2.08.06l12.47 12.46z" fill="url(#d)"/><path d="M27 24.31l-14.56 8.24a1.66 1.66 0 01-2 0l-.08.08.08.07a1.66 1.66 0 002 0l14.61-8.3z" style="isolation:isolate" opacity=".2"/><path d="M10.36 32.49a2 2 0 01-.46-1.4v.14a2 2 0 00.46 1.41l.08-.08zm21.58-11.02l-5 2.84.09.09 4.89-2.78A1.76 1.76 0 0033 20.18a1.85 1.85 0 01-1.06 1.29z" style="isolation:isolate" opacity=".12"/><path d="M12.44 7.8l19.5 11.08A1.85 1.85 0 0133 20.17a1.76 1.76 0 00-1.05-1.44L12.44 7.65C11 6.86 9.9 7.52 9.9 9.12v.14C9.9 7.66 11 7 12.44 7.8z" style="isolation:isolate" opacity=".25" fill="#fff"/></svg>