<svg xmlns="http://www.w3.org/2000/svg" viewBox="0 0 119.66 40"><path d="M110.13 0H7.52a13.51 13.51 0 00-2 .18 6.74 6.74 0 00-1.9.63A6.07 6.07 0 002 2 6.07 6.07 0 00.82 3.62a6.74 6.74 0 00-.63 1.9 12.18 12.18 0 00-.17 2v24.96a12.18 12.18 0 00.17 2 6.8 6.8 0 00.63 1.91A6.19 6.19 0 002 38a6.07 6.07 0 001.62 1.18 6.74 6.74 0 001.9.63 13.51 13.51 0 002 .18h104.62a13.39 13.39 0 002-.18 6.91 6.91 0 001.91-.63 6.24 6.24 0 001.62-1.18 6.68 6.68 0 001.18-1.61 7.12 7.12 0 00.62-1.91 13.39 13.39 0 00.18-2V7.52a13.39 13.39 0 00-.18-2 7.05 7.05 0 00-.62-1.9A6.54 6.54 0 00117.67 2a6.24 6.24 0 00-1.62-1.18 6.91 6.91 0 00-1.91-.63 13.39 13.39 0 00-2-.18h-2z" fill="#b7b7b7"/><path d="M8.44 39.12h-.9A11.52 11.52 0 015.67 39 5.89 5.89 0 014 38.4a5.16 5.16 0 01-1.39-1 5.19 5.19 0 01-1-1.4 5.79 5.79 0 01-.55-1.66 12.1 12.1 0 01-.16-1.87V7.55a12 12 0 01.16-1.87A5.69 5.69 0 011.6 4a5.06 5.06 0 011-1.4 5.52 5.52 0 011.4-1 5.79 5.79 0 011.66-.55A12.1 12.1 0 017.54.89h104.59a12.08 12.08 0 011.86.16 6 6 0 011.67.55 5.49 5.49 0 012.41 2.4 5.92 5.92 0 01.54 1.65 13.68 13.68 0 01.17 1.88v24.94a13.12 13.12 0 01-.17 1.85 5.85 5.85 0 01-.54 1.67 5.42 5.42 0 01-1 1.39 5.19 5.19 0 01-1.4 1A5.59 5.59 0 01114 39a11.52 11.52 0 01-1.87.16H8.44z"/><path d="M24.77 20.3a4.92 4.92 0 012.36-4.15 5.08 5.08 0 00-4-2.16c-1.67-.18-3.3 1-4.16 1s-2.19-1-3.61-1a5.31 5.31 0 00-4.47 2.73C9 20.11 10.4 25 12.25 27.74c.93 1.33 2 2.81 3.43 2.75s1.9-.88 3.58-.88 2.14.88 3.59.85 2.43-1.33 3.32-2.67a11.09 11.09 0 001.52-3.09 4.77 4.77 0 01-2.92-4.4zM22 12.21a4.89 4.89 0 001.11-3.49 5 5 0 00-3.21 1.66 4.65 4.65 0 00-1.14 3.36A4.11 4.11 0 0022 12.21zm20.3 14.93h-4.73l-1.14 3.36h-2l4.48-12.42H41l4.48 12.42h-2zm-4.24-1.55h3.75L40 20.14h-.05zm17.1.41c0 2.81-1.51 4.62-3.78 4.62A3.09 3.09 0 0148.53 29v4.48h-1.9v-12h1.8V23a3.22 3.22 0 012.89-1.6c2.33-.05 3.84 1.76 3.84 4.6zm-1.91 0c0-1.83-1-3-2.39-3s-2.38 1.23-2.38 3 1 3.05 2.38 3.05 2.39-1.23 2.39-3.05zm11.87 0c0 2.81-1.5 4.62-3.77 4.62A3.08 3.08 0 0158.5 29v4.48h-1.9v-12h1.8V23a3.22 3.22 0 012.88-1.6c2.33-.05 3.84 1.76 3.84 4.6zm-1.91 0c0-1.83-.94-3-2.39-3s-2.37 1.23-2.37 3 .95 3 2.37 3 2.39-1.18 2.39-3zm8.5 1c.14 1.23 1.33 2 3 2s2.69-.81 2.69-1.92-.68-1.54-2.29-1.94l-1.61-.39c-2.28-.55-3.33-1.61-3.33-3.34 0-2.15 1.86-3.62 4.51-3.62s4.43 1.47 4.49 3.62h-1.91c-.11-1.24-1.14-2-2.63-2s-2.52.75-2.52 1.86c0 .87.65 1.39 2.25 1.79l1.37.33c2.55.6 3.61 1.63 3.61 3.44 0 2.33-1.86 3.78-4.8 3.78-2.75 0-4.61-1.42-4.73-3.66zm11.64-7.7v2.14h1.72v1.47h-1.72v5c0 .77.34 1.13 1.1 1.13a5 5 0 00.61 0v1.46a5.21 5.21 0 01-1 .09c-1.84 0-2.55-.69-2.55-2.45v-5.23h-1.35v-1.47h1.32V19.3zm2.71 6.7c0-2.85 1.68-4.64 4.3-4.64s4.29 1.79 4.29 4.64-1.65 4.61-4.29 4.61-4.3-1.78-4.3-4.61zm6.7 0c0-1.95-.9-3.11-2.4-3.11S88 24 88 26s.89 3.11 2.4 3.11 2.36-1.18 2.36-3.11zm3.43-4.56H98V23a2.16 2.16 0 012.18-1.63 2.58 2.58 0 01.64.07v1.74A2.37 2.37 0 00100 23a1.88 1.88 0 00-2 2.13v5.37h-1.81zm13.19 6.4c-.25 1.64-1.85 2.77-3.89 2.77-2.64 0-4.27-1.77-4.27-4.6s1.64-4.68 4.19-4.68 4.08 1.72 4.08 4.47v.63h-6.4v.12a2.36 2.36 0 002.44 2.56 2.05 2.05 0 002.09-1.27zm-6.28-2.71h4.53a2.17 2.17 0 00-2.22-2.29 2.3 2.3 0 00-2.31 2.29zM37.83 8.73a2.64 2.64 0 012.8 3c0 1.9-1 3-2.8 3h-2.16v-6zm-1.23 5.12h1.12a1.87 1.87 0 002-2.14 1.88 1.88 0 00-2-2.14H36.6zm5.08-1.41a2.13 2.13 0 114.25 0 2.13 2.13 0 11-4.25 0zm3.33 0c0-1-.43-1.54-1.2-1.54s-1.21.57-1.21 1.54S43 14 43.81 14 45 13.42 45 12.44zm6.56 2.26h-.92l-.93-3.32h-.07l-.93 3.32h-.91l-1.24-4.51h.9l.81 3.44h.06l.93-3.44h.85l.93 3.44h.07l.8-3.44h.89zm2.28-4.51h.86v.72h.07a1.33 1.33 0 011.34-.8 1.46 1.46 0 011.56 1.67v2.92h-.89V12c0-.73-.32-1.09-1-1.09a1 1 0 00-1.08 1.14v2.65h-.89zm5.24-1.75H60v6.26h-.89zm2.13 4a2.13 2.13 0 114.25 0 2.13 2.13 0 11-4.25 0zm3.33 0c0-1-.44-1.54-1.21-1.54s-1.2.57-1.2 1.54.43 1.56 1.2 1.56 1.21-.58 1.21-1.56zm1.85.98c0-.81.6-1.27 1.68-1.34L69.3 12v-.39c0-.47-.32-.74-.93-.74s-.84.18-.93.5h-.87c.1-.78.82-1.27 1.84-1.27s1.77.56 1.77 1.51v3.09h-.86v-.64h-.07a1.49 1.49 0 01-1.35.71 1.36 1.36 0 01-1.5-1.35zm2.9-.42v-.38l-1.1.07c-.62 0-.91.26-.91.65s.36.64.84.64A1.06 1.06 0 0069.3 13zm2.05-.56c0-1.42.73-2.32 1.87-2.32a1.49 1.49 0 011.38.79h.06V8.44h.89v6.26h-.85V14h-.07a1.56 1.56 0 01-1.41.78c-1.15-.01-1.87-.91-1.87-2.34zm.92 0c0 1 .45 1.53 1.2 1.53s1.21-.58 1.21-1.52-.47-1.53-1.21-1.53-1.2.58-1.2 1.52zm6.96 0a2.13 2.13 0 114.25 0 2.13 2.13 0 11-4.25 0zm3.33 0c0-1-.44-1.54-1.2-1.54s-1.21.57-1.21 1.54.43 1.56 1.21 1.56 1.2-.58 1.2-1.56zm2.11-2.25h.85v.72h.07a1.36 1.36 0 011.35-.8 1.46 1.46 0 011.55 1.67v2.92h-.88V12c0-.73-.32-1.09-1-1.09a1 1 0 00-1.07 1.14v2.65h-.89zm8.85-1.12v1.15h1V11h-1v2.32c0 .47.19.68.63.68h.34v.74a3.45 3.45 0 01-.48 0c-1 0-1.38-.34-1.38-1.21V11h-.72v-.74h.72V9.07zm2.18-.63h.89v2.48h.07a1.37 1.37 0 011.34-.81 1.48 1.48 0 011.55 1.68v2.91h-.89V12c0-.72-.33-1.08-1-1.08a1.06 1.06 0 00-1.14 1.14v2.64h-.82zm9.06 5.04a1.82 1.82 0 01-2 1.3 2 2 0 01-2.08-2.32 2.08 2.08 0 012.08-2.35c1.25 0 2 .85 2 2.27v.31h-3.17v.05a1.18 1.18 0 001.24 1.26 1.1 1.1 0 001.08-.55zM101.64 12h2.27a1.09 1.09 0 00-1.11-1.17 1.15 1.15 0 00-1.16 1.17z" fill="#fff"/></svg>